<?xml version="1.0" encoding="utf-8"?>
<!-- Generator: Adobe Illustrator 18.1.1, SVG Export Plug-In . SVG Version: 6.00 Build 0)  -->
<svg version="1.0" id="Layer_1" xmlns="http://www.w3.org/2000/svg" xmlns:xlink="http://www.w3.org/1999/xlink" x="0px" y="0px"
	 viewBox="0 0 640 640" enable-background="new 0 0 640 640" xml:space="preserve">
<path d="M567.9,252.1l-153.5-15.2c-11.7-1.1-14.4-2.9-18-12.5L330.8,78.8c-3-6.2-7-9.3-10.9-9.3c-3.9,0-7.9,3.1-10.9,9.3L239,224.4
	c-4.8,8.1-7,9.9-18.5,11L71.9,252.1c-13.7,1.4-16.7,10.2-6.8,19.7l116.6,107.2c5.5,5.1,5.6,7.3,4,14.4l-29.9,157.4
	c-2.5,13.5,5.1,18.9,17,12L306,486c9.4-5.9,18-6,27.1-0.4l133.8,77.2c11.9,6.9,19.6,1.5,17.1-12l-22.9-125.6
	c13.7-4.6,27-10.3,34.9-16.7l-0.1,0l0.1,0l-3.2,0.6c-3.6,0.9-7.4,1.7-11.3,2.5c-0.5,0.1-0.9,0.2-1.4,0.3c-0.7,0.1-1.3,0.3-2,0.4
	c-1.2,0.2-2.4,0.5-3.6,0.7c-0.1,0-0.3,0.1-0.4,0.1c-4.7,0.9-9.5,1.8-14.5,2.7c-42.2,7.2-92.4,11.3-139.6,11.3
	c-22.3,0-43.9-0.8-64.6-2.3l-0.1,0.1c-18.2-1.3-35.7-3.1-52.4-5.4c-6.2-1,0.5-5,0.5-5l160.4-114c0,0,4.2-2.6,0.1-3.2
	c-65.9-10.3-139-12.9-207.7-12.9c-1.6,0-3.2,0-4.7,0c46.4-10.6,104.8-16.9,168.3-16.9c37.4,0,73.1,2.2,105.6,6.2
	c0,0,18.4,2.5,27.2,4c6.8,1,0.4,5,0.4,5L292.4,394.2c0,0-3.7,2.2,0.3,2.8c49.4,7,110.3,9.5,165.1,10.2l0,0
	c-2.5-13.5-2.5-13.5-2.5-13.5c-1.2-7.8,0-10.5,5.9-16.1l113.3-105.9C584.5,262.3,581.6,253.5,567.9,252.1z"/>
</svg>
